<svg width="24" height="21" viewBox="0 0 24 21" fill="none" xmlns="http://www.w3.org/2000/svg">
<g filter="url(#filter0_d_1_7)">
<path fill-rule="evenodd" clip-rule="evenodd" d="M4.25 5C4.25 2.23857 6.48858 0 9.25 0H17C19.7614 0 22 2.23858 22 5V13C22 15.7614 19.7614 18 17 18H3C2.63251 18 2.29462 17.7984 2.12004 17.475C1.94546 17.1517 1.96232 16.7586 2.16395 16.4513L3.75815 14.0221C4.07904 13.5331 4.25 12.961 4.25 12.3761V5ZM9.25 2C7.59315 2 6.25 3.34314 6.25 5V12.3761C6.25 13.3509 5.96506 14.3044 5.43024 15.1194L4.85235 16H17C18.6569 16 20 14.6569 20 13V5C20 3.34315 18.6569 2 17 2H9.25Z" fill="white"/>
</g>
<defs>
<filter id="filter0_d_1_7" x="-2" y="0" width="28" height="26" filterUnits="userSpaceOnUse" color-interpolation-filters="sRGB">
<feFlood flood-opacity="0" result="BackgroundImageFix"/>
<feColorMatrix in="SourceAlpha" type="matrix" values="0 0 0 0 0 0 0 0 0 0 0 0 0 0 0 0 0 0 127 0" result="hardAlpha"/>
<feOffset dy="4"/>
<feGaussianBlur stdDeviation="2"/>
<feComposite in2="hardAlpha" operator="out"/>
<feColorMatrix type="matrix" values="0 0 0 0 0 0 0 0 0 0 0 0 0 0 0 0 0 0 0.25 0"/>
<feBlend mode="normal" in2="BackgroundImageFix" result="effect1_dropShadow_1_7"/>
<feBlend mode="normal" in="SourceGraphic" in2="effect1_dropShadow_1_7" result="shape"/>
</filter>
</defs>
</svg>
